<?xml version="1.0" standalone="no"?>
<!DOCTYPE svg PUBLIC "-//W3C//DTD SVG 20010904//EN"
 "http://www.w3.org/TR/2001/REC-SVG-20010904/DTD/svg10.dtd">
<svg version="1.0" xmlns="http://www.w3.org/2000/svg"
 width="226.000000pt" height="226.000000pt" viewBox="0 0 226.000000 226.000000"
 preserveAspectRatio="xMidYMid meet">

<g transform="translate(0.000000,226.000000) scale(0.100000,-0.100000)"
fill="#e43961" stroke="none">
<path d="M310 2085 l0 -124 -132 -3 -133 -3 -3 -147 -3 -148 211 0 c115 0 210
-2 210 -5 0 -2 -18 -51 -41 -107 -86 -218 -215 -456 -348 -643 -35 -48 -65
-94 -68 -101 -4 -12 22 -14 151 -14 l156 0 0 -375 0 -375 155 0 155 0 0 425
c0 234 3 425 6 425 4 0 58 -27 120 -61 85 -45 115 -57 119 -47 3 8 4 81 3 162
l-3 148 -115 64 c-66 37 -114 69 -112 76 2 7 20 56 42 108 66 166 137 403 175
588 l7 32 -126 0 -126 0 0 125 0 125 -150 0 -150 0 0 -125z"/>
<path d="M930 1460 l0 -700 140 0 140 0 2 543 3 542 313 3 312 2 0 -545 0
-545 145 0 145 0 0 700 0 700 -600 0 -600 0 0 -700z"/>
<path d="M1387 1743 c-4 -3 -7 -148 -7 -322 -1 -320 -8 -422 -44 -575 -36
-154 -111 -327 -200 -466 -49 -75 -189 -251 -235 -294 -17 -17 -31 -33 -31
-38 0 -4 87 -8 193 -8 l193 0 45 63 c136 188 228 378 284 582 60 219 75 369
75 753 l0 312 -133 0 c-74 0 -137 -3 -140 -7z"/>
<path d="M1610 675 c0 -3 0 -138 0 -300 0 -162 0 -304 0 -315 0 -20 7 -20 305
-20 l305 0 0 150 0 150 -170 0 -170 0 0 170 0 170 -135 0 c-74 0 -135 -2 -135
-5z"/>
</g>
</svg>
